<svg width="160" height="64" viewBox="0 0 160 64" fill="none" xmlns="http://www.w3.org/2000/svg">
<rect width="159.192" height="55" fill="#444444"/>
<path d="M147.192 38.6998H139.768L130.648 29.6758H126.648V38.6998H120.824V16.2998H126.648V25.2278H130.584L139.224 16.2998H146.2L135.192 27.0838L147.192 38.6998Z" fill="#DADFC5"/>
<path d="M115.996 19.3398C118.3 21.3451 119.452 24.0651 119.452 27.4998C119.452 31.0838 118.161 33.9105 115.58 35.9798C113.02 38.0491 109.446 39.0838 104.86 39.0838C101.702 39.0838 98.9823 38.5718 96.6996 37.5478L94.1076 40.0118L91.4836 37.7078L93.6916 35.6278C91.3876 33.5798 90.2356 30.8705 90.2356 27.4998C90.2356 23.9158 91.5263 21.0891 94.1076 19.0198C96.6889 16.9505 100.273 15.9158 104.86 15.9158C107.974 15.9158 110.684 16.4171 112.988 17.4198L115.58 14.9878L118.172 17.2918L115.996 19.3398ZM96.0596 27.4998C96.0596 29.2491 96.6036 30.6998 97.6916 31.8518L108.924 21.2598C107.708 20.8545 106.353 20.6518 104.86 20.6518C102.065 20.6518 99.8996 21.2811 98.3636 22.5398C96.8276 23.7985 96.0596 25.4518 96.0596 27.4998ZM104.86 34.3478C107.633 34.3478 109.788 33.7185 111.324 32.4598C112.86 31.2011 113.628 29.5478 113.628 27.4998C113.628 25.7505 113.084 24.2891 111.996 23.1158L100.732 33.7398C101.99 34.1451 103.366 34.3478 104.86 34.3478Z" fill="#DADFC5"/>
<path d="M65.8186 21.0678V16.2998H90.8106V21.0678H81.2426V38.6998H75.4186V21.0678H65.8186Z" fill="white"/>
<path d="M61.5994 30.6035L67.2314 30.8915C66.8047 33.5155 65.482 35.5422 63.2634 36.9715C61.066 38.3795 58.058 39.0835 54.2394 39.0835C49.6527 39.0835 46.1007 38.0595 43.5834 36.0115C41.0874 33.9422 39.8394 31.1049 39.8394 27.4995C39.8394 23.8942 41.066 21.0675 43.5194 19.0195C45.9727 16.9502 49.4074 15.9155 53.8234 15.9155C57.4287 15.9155 60.3727 16.6195 62.6554 18.0275C64.938 19.4142 66.3247 21.3022 66.8154 23.6915L61.2154 24.0435C60.8527 23.0195 59.9994 22.1982 58.6554 21.5795C57.3114 20.9609 55.7007 20.6515 53.8234 20.6515C51.2207 20.6515 49.2047 21.2809 47.7754 22.5395C46.3674 23.7769 45.6634 25.4302 45.6634 27.4995C45.6634 29.5689 46.3994 31.2329 47.8714 32.4915C49.3434 33.7289 51.466 34.3475 54.2394 34.3475C56.266 34.3475 57.9087 34.0062 59.1674 33.3235C60.4474 32.6195 61.258 31.7129 61.5994 30.6035Z" fill="white"/>
<path d="M29.472 16.2998H38.432V38.6998H32.736V20.2678L20.96 38.6998H12V16.2998H17.696V34.7318L29.472 16.2998Z" fill="white"/>
<path d="M28.6172 63.75L21 54H36.2344L28.6172 63.75Z" fill="#444444"/>
</svg>
