<svg width="136" height="26" viewBox="0 0 136 26" fill="none" xmlns="http://www.w3.org/2000/svg">
<path d="M135.192 23.712H127.768L118.648 14.688H114.648V23.712H108.824V1.31201H114.648V10.24H118.584L127.224 1.31201H134.2L123.192 12.096L135.192 23.712Z" fill="#DADFC5"/>
<path d="M103.996 4.352C106.3 6.35733 107.452 9.07733 107.452 12.512C107.452 16.096 106.161 18.9227 103.58 20.992C101.02 23.0613 97.4463 24.096 92.8596 24.096C89.7023 24.096 86.9823 23.584 84.6996 22.56L82.1076 25.024L79.4836 22.72L81.6916 20.64C79.3876 18.592 78.2356 15.8827 78.2356 12.512C78.2356 8.928 79.5263 6.10133 82.1076 4.032C84.6889 1.96267 88.2729 0.928001 92.8596 0.928001C95.9743 0.928001 98.6836 1.42933 100.988 2.432L103.58 0L106.172 2.304L103.996 4.352ZM84.0596 12.512C84.0596 14.2613 84.6036 15.712 85.6916 16.864L96.9236 6.272C95.7076 5.86667 94.3529 5.664 92.8596 5.664C90.0649 5.664 87.8996 6.29333 86.3636 7.552C84.8276 8.81067 84.0596 10.464 84.0596 12.512ZM92.8596 19.36C95.6329 19.36 97.7876 18.7307 99.3236 17.472C100.86 16.2133 101.628 14.56 101.628 12.512C101.628 10.7627 101.084 9.30134 99.9956 8.128L88.7316 18.752C89.9903 19.1573 91.3663 19.36 92.8596 19.36Z" fill="#DADFC5"/>
<path d="M53.8186 6.08001V1.31201H78.8106V6.08001H69.2426V23.712H63.4186V6.08001H53.8186Z" fill="white"/>
<path d="M49.5994 15.6157L55.2314 15.9037C54.8047 18.5277 53.482 20.5544 51.2634 21.9837C49.066 23.3917 46.058 24.0957 42.2394 24.0957C37.6527 24.0957 34.1007 23.0717 31.5834 21.0237C29.0874 18.9544 27.8394 16.1171 27.8394 12.5117C27.8394 8.9064 29.066 6.07973 31.5194 4.03173C33.9727 1.9624 37.4074 0.927734 41.8234 0.927734C45.4287 0.927734 48.3727 1.63173 50.6554 3.03973C52.938 4.4264 54.3247 6.3144 54.8154 8.70374L49.2154 9.05573C48.8527 8.03173 47.9994 7.2104 46.6554 6.59173C45.3114 5.97307 43.7007 5.66373 41.8234 5.66373C39.2207 5.66373 37.2047 6.29307 35.7754 7.55173C34.3674 8.78907 33.6634 10.4424 33.6634 12.5117C33.6634 14.5811 34.3994 16.2451 35.8714 17.5037C37.3434 18.7411 39.466 19.3597 42.2394 19.3597C44.266 19.3597 45.9087 19.0184 47.1674 18.3357C48.4474 17.6317 49.258 16.7251 49.5994 15.6157Z" fill="white"/>
<path d="M17.472 1.31201H26.432V23.712H20.736V5.28001L8.96 23.712H0V1.31201H5.696V19.744L17.472 1.31201Z" fill="white"/>
</svg>
