<svg width="24" height="24" viewBox="0 0 24 24" fill="none" xmlns="http://www.w3.org/2000/svg">
<path d="M15.8249 3.23963C16.5921 3.01906 17.2692 2.96802 17.6626 3.01717L17.7222 3.02459V4.93179C18.2736 5.20703 19.0901 5.62203 19.8187 6.02559C20.1915 6.23211 20.5423 6.4361 20.823 6.61708C21.1006 6.79605 21.3188 6.95796 21.418 7.08089C21.7894 7.54109 22.2537 8.40903 21.8338 9.44952C21.747 9.6645 21.5657 9.88973 21.3367 10.1109C21.1065 10.3332 20.8224 10.5568 20.5233 10.7676C19.946 11.1744 19.3071 11.5368 18.8769 11.756L19.6883 16.8537L19.6324 16.8726L19.619 16.8771C19.6101 16.8801 19.5969 16.8844 19.5797 16.8901C19.5452 16.9015 19.4941 16.9181 19.4282 16.9393C19.2964 16.9817 19.1047 17.0422 18.8653 17.1148C18.3866 17.2601 17.7165 17.4539 16.9516 17.6478C16.8567 17.6718 16.7604 17.6958 16.6628 17.7198C16.3389 15.2838 14.3684 13.4101 11.9854 13.4101C9.59795 13.4101 7.62448 15.2908 7.30616 17.7333C7.19433 17.7062 7.08409 17.6792 6.97582 17.6519C6.20404 17.4573 5.52801 17.2625 5.04491 17.1164C4.81237 17.046 4.62443 16.9869 4.49204 16.9445C4.48691 16.9429 4.48186 16.9413 4.4769 16.9397C4.41042 16.9184 4.35895 16.9016 4.32412 16.8901C4.30676 16.8844 4.2935 16.8801 4.28457 16.8771C4.28013 16.8756 4.2767 16.8745 4.27442 16.8737L4.27179 16.8729L4.22222 16.8562L4.2238 16.8019C4.25771 15.6736 4.47458 13.9696 5.01657 12.5236C5.55702 11.0818 6.43243 9.86849 7.79679 9.77977C9.12096 9.69367 10.0957 9.67577 10.7767 9.68835C11.3475 9.6989 11.7149 9.73118 11.9088 9.76353C11.8501 9.13102 11.8533 8.16278 12.0442 7.19177C12.2447 6.17148 12.6546 5.13664 13.4286 4.49079C14.1931 3.85283 15.0567 3.46051 15.8249 3.23963Z" fill="#8E8E8E"/>
<path d="M2 15.4667C2 15.4667 8.1555 18.3 12 18.3C15.8445 18.3 22 15.4667 22 15.4667V17.6478C22 17.6478 16 20 12 20C8 20 2 17.5 2 17.5V15.4667Z" fill="#8E8E8E"/>
</svg>
