<svg width="24" height="24" viewBox="0 0 24 24" fill="none" xmlns="http://www.w3.org/2000/svg">
<path d="M16.8395 4.5C17.3856 4.49954 17.9262 4.6081 18.4298 4.81931C18.9334 5.03052 19.3897 5.34014 19.772 5.73C20.5598 6.52979 21.0014 7.60737 21.0014 8.73C21.0014 9.85264 20.5598 10.9302 19.772 11.73L12.002 19.5975L4.23203 11.73C3.44422 10.9302 3.00262 9.85264 3.00262 8.73C3.00262 7.60737 3.44422 6.52979 4.23203 5.73C4.6146 5.34042 5.07096 5.03096 5.57446 4.81972C6.07796 4.60848 6.61851 4.49968 7.16453 4.49968C7.71055 4.49968 8.25109 4.60848 8.75459 4.81972C9.2581 5.03096 9.71446 5.34042 10.097 5.73L12.002 7.68L13.8995 5.745C14.2807 5.35049 14.7375 5.0369 15.2427 4.82298C15.7478 4.60906 16.2909 4.49921 16.8395 4.5ZM16.8395 3C16.0937 2.99937 15.3553 3.14764 14.6676 3.43613C13.9799 3.72461 13.3567 4.1475 12.8345 4.68L12.002 5.52L11.1695 4.68C10.6467 4.14846 10.0234 3.72631 9.33577 3.43814C8.64816 3.14998 7.91007 3.00157 7.16453 3.00157C6.41898 3.00157 5.68089 3.14998 4.99329 3.43814C4.30568 3.72631 3.68232 4.14846 3.15953 4.68C2.09594 5.76272 1.5 7.21977 1.5 8.7375C1.5 10.2552 2.09594 11.7123 3.15953 12.795L12.002 21.75L20.8445 12.795C21.9081 11.7123 22.5041 10.2552 22.5041 8.7375C22.5041 7.21977 21.9081 5.76272 20.8445 4.68C20.3216 4.14852 19.6983 3.72629 19.0107 3.43788C18.3232 3.14947 17.5851 3.00062 16.8395 3Z" fill="#1E1E1E"/>
</svg>
