<svg width="24" height="24" viewBox="0 0 24 24" fill="none" xmlns="http://www.w3.org/2000/svg">
<path d="M14.6676 3.43613C15.3553 3.14764 16.0937 2.99937 16.8395 3C17.5851 3.00062 18.3232 3.14947 19.0107 3.43788C19.6983 3.72629 20.3216 4.14852 20.8445 4.68C21.9081 5.76272 22.5041 7.21977 22.5041 8.7375C22.5041 10.2552 21.9081 11.7123 20.8445 12.795L12.002 21.75L3.15953 12.795C2.09594 11.7123 1.5 10.2552 1.5 8.7375C1.5 7.21977 2.09594 5.76272 3.15953 4.68C3.68232 4.14846 4.30568 3.72631 4.99329 3.43814C5.68089 3.14998 6.41898 3.00157 7.16453 3.00157C7.91007 3.00157 8.64816 3.14998 9.33577 3.43814C10.0234 3.72631 10.6467 4.14846 11.1695 4.68L12.002 5.52L12.8345 4.68C13.3567 4.1475 13.9799 3.72461 14.6676 3.43613Z" fill="#444444"/>
</svg>
