<svg width="136" height="26" viewBox="0 0 136 26" fill="none" xmlns="http://www.w3.org/2000/svg">
<path d="M135.192 23.7115H127.768L118.648 14.6875H114.648V23.7115H108.824V1.31152H114.648V10.2395H118.584L127.224 1.31152H134.2L123.192 12.0955L135.192 23.7115Z" fill="#DADFC5"/>
<path d="M103.996 4.352C106.3 6.35733 107.452 9.07733 107.452 12.512C107.452 16.096 106.161 18.9227 103.58 20.992C101.02 23.0613 97.4462 24.096 92.8595 24.096C89.7022 24.096 86.9822 23.584 84.6995 22.56L82.1075 25.024L79.4835 22.72L81.6915 20.64C79.3875 18.592 78.2355 15.8827 78.2355 12.512C78.2355 8.928 79.5262 6.10133 82.1075 4.032C84.6888 1.96267 88.2728 0.928001 92.8595 0.928001C95.9742 0.928001 98.6835 1.42933 100.988 2.432L103.58 0L106.172 2.304L103.996 4.352ZM84.0595 12.512C84.0595 14.2613 84.6035 15.712 85.6915 16.864L96.9235 6.272C95.7075 5.86667 94.3528 5.664 92.8595 5.664C90.0648 5.664 87.8995 6.29333 86.3635 7.552C84.8275 8.81067 84.0595 10.464 84.0595 12.512ZM92.8595 19.36C95.6328 19.36 97.7875 18.7307 99.3235 17.472C100.86 16.2133 101.628 14.56 101.628 12.512C101.628 10.7627 101.084 9.30134 99.9955 8.128L88.7315 18.752C89.9902 19.1573 91.3662 19.36 92.8595 19.36Z" fill="#DADFC5"/>
<path d="M53.8185 6.07952V1.31152H78.8105V6.07952H69.2425V23.7115H63.4185V6.07952H53.8185Z" fill="white"/>
<path d="M49.5992 15.6157L55.2313 15.9037C54.8046 18.5277 53.4819 20.5544 51.2632 21.9837C49.0659 23.3917 46.0579 24.0957 42.2393 24.0957C37.6526 24.0957 34.1006 23.0717 31.5832 21.0237C29.0872 18.9544 27.8392 16.1171 27.8392 12.5117C27.8392 8.9064 29.0659 6.07973 31.5192 4.03173C33.9726 1.9624 37.4072 0.927734 41.8232 0.927734C45.4286 0.927734 48.3726 1.63173 50.6553 3.03973C52.9379 4.4264 54.3246 6.3144 54.8153 8.70374L49.2153 9.05573C48.8526 8.03173 47.9992 7.2104 46.6552 6.59173C45.3112 5.97307 43.7006 5.66373 41.8232 5.66373C39.2206 5.66373 37.2046 6.29307 35.7752 7.55173C34.3672 8.78907 33.6632 10.4424 33.6632 12.5117C33.6632 14.5811 34.3993 16.2451 35.8713 17.5037C37.3433 18.7411 39.4659 19.3597 42.2393 19.3597C44.2659 19.3597 45.9086 19.0184 47.1672 18.3357C48.4472 17.6317 49.2579 16.7251 49.5992 15.6157Z" fill="white"/>
<path d="M17.472 1.31152H26.432V23.7115H20.736V5.27952L8.96 23.7115H0V1.31152H5.696V19.7435L17.472 1.31152Z" fill="white"/>
</svg>
