<svg width="24" height="24" viewBox="0 0 24 24" fill="none" xmlns="http://www.w3.org/2000/svg">
<path d="M9.62042 5.25C9.62042 4.00725 10.6859 3 12.0008 3C13.3157 3 14.297 4.00725 14.297 5.25C14.297 6.49275 13.3149 7.5 12.0008 7.5C10.6867 7.5 9.62042 6.49275 9.62042 5.25ZM16.8956 13.6688L20.1465 15.714L21 14.4585L18.0156 12.5812L16.2284 10.002C15.7935 9.375 15.0662 9 14.2829 9H9.71629C8.93297 9 8.20577 9.375 7.77085 10.002L5.98363 12.5812L3 14.4585L3.85347 15.714L7.10444 13.6688L8.88231 11.1023V16.8442L4.20577 19.7055V21H9.66173V18H14.106L16.4903 19.5H11.2206V21H19.7942V19.7865L15.1177 16.8442V11.1023L16.8956 13.6688Z" fill="#8E8E8E"/>
</svg>
